<?xml version="1.0" standalone="no"?>
<!DOCTYPE svg PUBLIC "-//W3C//DTD SVG 20010904//EN"
 "http://www.w3.org/TR/2001/REC-SVG-20010904/DTD/svg10.dtd">
<svg version="1.0" xmlns="http://www.w3.org/2000/svg"
 width="1200.000000pt" height="1200.000000pt" viewBox="0 0 1200.000000 1200.000000"
 preserveAspectRatio="xMidYMid meet">
<metadata>
Created by potrace 1.14, written by Peter Selinger 2001-2017
</metadata>
<g transform="translate(0.000000,1200.000000) scale(0.100000,-0.100000)"
fill="#000000" stroke="none">
<path d="M5718 11995 c-2 -1 -55 -6 -118 -9 -63 -4 -128 -8 -145 -11 -16 -2
-55 -6 -85 -9 -123 -12 -220 -25 -385 -52 -79 -13 -298 -57 -365 -74 -41 -10
-86 -21 -100 -24 -14 -3 -74 -19 -135 -36 -60 -17 -124 -35 -141 -39 -18 -5
-37 -11 -43 -15 -6 -4 -19 -9 -28 -11 -21 -4 -220 -73 -313 -108 -200 -76
-350 -143 -595 -267 -885 -450 -1645 -1121 -2227 -1965 -66 -96 -236 -367
-245 -392 -4 -10 -27 -51 -50 -92 -24 -40 -73 -130 -107 -200 -266 -531 -456
-1111 -551 -1686 -3 -16 -7 -41 -10 -55 -8 -45 -16 -95 -29 -205 -3 -22 -8
-71 -12 -110 -3 -38 -8 -78 -10 -87 -18 -99 -26 -724 -12 -943 8 -119 24 -288
33 -345 3 -19 7 -51 10 -70 4 -41 15 -108 51 -322 2 -16 11 -56 19 -90 8 -35
17 -78 20 -96 19 -111 116 -448 190 -662 146 -422 400 -943 629 -1285 14 -22
31 -47 36 -55 99 -154 363 -497 509 -660 117 -131 353 -368 464 -467 120 -107
134 -119 187 -162 25 -20 47 -38 50 -41 16 -16 159 -127 240 -187 473 -347
1046 -648 1589 -834 72 -24 96 -28 175 -26 110 4 165 25 222 87 70 76 77 107
76 340 0 113 -1 380 -2 593 l-1 388 -32 -5 c-63 -11 -92 -16 -112 -20 -11 -3
-47 -8 -80 -11 -33 -4 -71 -8 -85 -11 -147 -25 -503 -24 -710 1 -67 9 -245 54
-325 82 -298 107 -523 313 -640 587 -183 427 -429 783 -629 913 -137 88 -161
106 -214 157 -88 85 -110 153 -64 199 50 50 269 71 417 40 273 -57 542 -272
764 -613 163 -252 307 -394 501 -499 109 -58 189 -87 325 -117 83 -18 277 -24
395 -11 84 9 244 44 325 72 61 20 179 67 187 74 3 3 9 26 13 51 39 272 157
525 327 706 42 44 45 50 25 50 -12 1 -42 4 -67 7 -25 4 -65 9 -90 12 -25 3
-70 10 -100 15 -30 5 -71 12 -90 15 -19 3 -57 10 -85 15 -27 6 -59 12 -70 14
-33 7 -67 14 -139 31 -38 9 -77 18 -85 20 -112 25 -365 111 -496 168 -171 74
-455 238 -542 313 -12 10 -37 30 -55 44 -50 37 -248 237 -307 309 -177 216
-328 507 -419 806 -58 189 -113 445 -127 595 -3 36 -8 76 -10 90 -26 147 -27
720 -1 856 2 11 7 39 10 64 3 25 9 56 12 70 3 14 8 39 11 55 3 17 20 82 38
145 88 306 230 574 439 832 47 58 81 107 76 113 -12 17 -62 182 -74 245 -2 14
-7 41 -11 60 -34 180 -38 475 -9 685 22 160 122 521 158 570 13 18 26 20 128
20 62 0 136 -3 164 -7 45 -7 78 -14 210 -43 50 -11 261 -88 371 -135 200 -86
462 -230 688 -378 l89 -59 91 24 c202 52 484 107 660 128 28 4 59 8 71 10 18
3 80 9 189 20 237 24 657 24 955 1 78 -6 204 -18 220 -21 8 -1 40 -6 70 -10
30 -4 62 -9 71 -10 9 -2 39 -6 68 -10 42 -5 348 -66 401 -79 8 -2 59 -15 113
-29 93 -24 98 -24 120 -7 119 93 525 323 747 423 92 41 320 123 370 133 14 3
50 11 80 19 113 28 300 43 383 31 l45 -7 46 -137 c160 -482 174 -924 44 -1358
l-30 -102 33 -37 c19 -21 39 -43 44 -49 32 -35 141 -187 190 -267 154 -249
280 -590 311 -844 4 -27 8 -53 10 -56 25 -43 24 -742 -1 -864 -3 -11 -7 -42
-10 -70 -6 -57 -9 -84 -24 -175 -18 -107 -21 -120 -47 -230 -14 -58 -27 -113
-29 -123 -11 -51 -101 -301 -136 -375 -21 -46 -39 -86 -39 -88 0 -2 -23 -46
-52 -97 -360 -643 -947 -1028 -1843 -1211 -125 -25 -190 -38 -215 -41 -41 -5
-127 -18 -143 -21 -10 -2 -48 -6 -85 -10 -37 -3 -70 -8 -75 -11 -4 -2 13 -25
38 -51 167 -174 267 -395 329 -727 17 -93 21 -281 21 -1115 l0 -955 27 -51
c66 -124 184 -175 352 -150 51 8 312 104 490 180 373 161 704 346 1086 610 25
17 47 33 50 36 3 3 30 23 60 45 53 38 268 209 320 254 14 12 52 46 85 74 102
89 273 256 420 411 114 120 283 324 417 501 82 109 298 428 298 440 0 4 9 20
21 36 80 112 293 528 398 777 52 121 142 362 171 452 27 84 108 362 114 391 3
13 15 65 27 114 11 50 22 99 25 110 2 11 6 31 9 45 6 30 12 57 25 132 23 123
27 147 39 230 16 115 21 158 27 228 3 36 7 74 9 85 19 94 27 751 12 953 -31
408 -100 812 -206 1207 -55 203 -204 619 -293 815 -108 240 -315 628 -395 742
-18 26 -33 50 -33 52 0 22 -298 433 -424 586 -180 217 -480 528 -656 680 -41
36 -77 67 -80 70 -11 13 -180 150 -240 195 -36 27 -69 53 -75 57 -57 46 -165
121 -285 199 -460 298 -872 501 -1355 666 -132 45 -288 94 -361 112 -21 5 -57
15 -79 21 -22 6 -49 13 -60 15 -11 2 -38 9 -60 14 -63 16 -266 59 -315 66 -25
4 -54 9 -65 11 -90 15 -220 34 -270 39 -33 4 -71 8 -85 10 -14 2 -61 7 -105
11 -44 3 -98 8 -120 11 -46 5 -702 13 -707 8z"/>
</g>
</svg>
